<svg id="レイヤー_1" data-name="レイヤー 1" xmlns="http://www.w3.org/2000/svg" viewBox="0 0 480 480"><title>vi</title><rect width="480" height="480" style="fill:none"/><path d="M432.46,269.64H365.64l-70.33-44.8c-26.73-16.29-43.61-26.73-60.49-38.44h-1.41c-15.47,11.71-30.95,21.89-57.67,38.44l-65.41,44.8H43.51l159-98.26L49.84,75.68h66.82L189.1,123c19,12.22,33.76,21.89,48.53,32.84h2.11c15.47-11.71,29.54-20.62,48.53-32.84l73.85-47.35h66.82L271.39,170.11Z" style="fill:#2d2d2d"/><path d="M111.15,340.38C124.74,344,133,354.56,133,368a32,32,0,0,1-10.75,23.89c-7.91,7-21.05,11-43.29,11a174.28,174.28,0,0,1-25.68-1.64V288.13c6.87-1.34,19.11-2.39,31.2-2.39,13.73,0,24,1.49,32.55,7,7.46,4.78,11.94,12.69,11.94,22.39,0,10-5.37,19.71-17.77,24.78v0.45Zm-25.68-7.76c11,0,17.47-6,17.47-14.33,0-9.26-6.42-13.29-15.23-13.29a35.17,35.17,0,0,0-8.36.75v26.87h6.12Zm-6.12,50.16a34.09,34.09,0,0,0,7.32.45c10,0,18.81-4.78,18.81-16,0-11.64-9.85-15.68-19.41-15.68H79.35v31.2Z" style="fill:#2d2d2d"/><path d="M189.39,341.87a26,26,0,0,0-6.42-.6c-6.72,0-13,3.13-15.23,10.6a24.2,24.2,0,0,0-1,7.91v42.1H140.42V345c0-11-.3-19.56-0.6-27.17h22.54l1,14H164c4.18-11,13-15.67,19.86-15.67a27.35,27.35,0,0,1,5.52.45v25.23Z" style="fill:#2d2d2d"/><path d="M259.41,382c0,7.46.3,14.78,1.34,19.86H237.16l-1.49-8.06h-0.45c-5.08,6.72-13,9.7-21.65,9.7-15.23,0-25.23-11.64-25.23-25.83,0-22.24,19.86-31.8,44.64-31.95,0-6.42-2.84-11-13.44-11a40.8,40.8,0,0,0-20.75,5.67l-4.78-17c5.37-3,16.27-7.17,30.75-7.17,27.77,0,34.64,17.62,34.64,36.28V382Zm-25.53-19.86c-10.9,0-20.15,3.13-20.15,12.84,0,6.87,4.18,9.85,8.81,9.85,5.37,0,11.35-3.88,11.35-11.79v-10.9Z" style="fill:#2d2d2d"/><path d="M343.91,401.89H317.63V353.07c0-8.81-2.69-15.23-10.15-15.23-5.52,0-11.35,4-11.35,14.78v49.27H269.86V344.71c0-10-.3-19-0.6-26.87h22.54l1.34,10.6h0.45a27.79,27.79,0,0,1,23.29-12.24c17.62,0,27,12.69,27,34.49v51.21Z" style="fill:#2d2d2d"/><path d="M428.41,376.21c0,9.26.3,19,.6,25.68H406L404.82,391h-0.45a25.37,25.37,0,0,1-22.09,12.54c-19.26,0-31.8-18.51-31.8-43.29,0-28.51,15.53-44,33-44,9,0,15.38,3.58,18.21,8.66h0.45V281.56h26.28v94.65Zm-26.28-24c0-11.64-6.87-15.08-11.35-15.08-9.55,0-13.88,10.45-13.88,23.14,0,14.48,5.67,22.09,13.74,22.09,4.93,0,11.5-3.13,11.5-14.63V352.17Z" style="fill:#2d2d2d"/></svg>